<?xml version="1.0" encoding="UTF-8" standalone="no"?>
<!DOCTYPE svg PUBLIC "-//W3C//DTD SVG 1.1//EN" "http://www.w3.org/Graphics/SVG/1.1/DTD/svg11.dtd">
<!-- Generated by Microsoft Visio, SVG Export al_sample_diagrams.svg Samples -->
<svg xmlns="http://www.w3.org/2000/svg" xmlns:xlink="http://www.w3.org/1999/xlink" xmlns:ev="http://www.w3.org/2001/xml-events"
		width="11.0044in" height="8.08606in" viewBox="0 0 792.318 582.197" xml:space="preserve" color-interpolation-filters="sRGB"
		class="st12">
	<style type="text/css">
	<![CDATA[
		.st1 {fill:#ffffff;stroke:#000000;stroke-linecap:round;stroke-linejoin:round;stroke-width:0.75}
		.st2 {fill:#000000;font-family:Calibri;font-size:1.00001em;font-stretch:semi-expanded}
		.st3 {fill:#ffffff;stroke:#000000;stroke-linecap:round;stroke-linejoin:round;stroke-width:0.24}
		.st4 {fill:#000000;font-family:Arial;font-size:0.833336em;font-weight:bold}
		.st5 {font-size:1em}
		.st6 {marker-end:url(#mrkr5-76);stroke:#000000;stroke-linecap:round;stroke-linejoin:round;stroke-width:0.75}
		.st7 {fill:#000000;fill-opacity:1;stroke:#000000;stroke-opacity:1;stroke-width:0.22935779816514}
		.st8 {marker-end:url(#mrkr4-111);marker-start:url(#mrkr4-109);stroke:#000000;stroke-linecap:round;stroke-linejoin:round;stroke-width:0.75}
		.st9 {marker-end:url(#mrkr4-121);stroke:#000000;stroke-linecap:round;stroke-linejoin:round;stroke-width:0.75}
		.st10 {fill:#ffffff;stroke:none;stroke-linecap:round;stroke-linejoin:round;stroke-width:0.24}
		.st11 {fill:#000000;font-family:Arial;font-size:1.16666em;font-weight:bold}
		.st12 {fill:none;fill-rule:evenodd;font-size:12px;overflow:visible;stroke-linecap:square;stroke-miterlimit:3}
	]]>
	</style>

	<defs id="Patterns_And_Gradients">
		<linearGradient id="grad0-11" x1="0" y1="0" x2="1" y2="0" gradientTransform="rotate(90 0.5 0.5)">
			<stop offset="0.01" stop-color="#ffffff" stop-opacity="1"/>
			<stop offset="0.5" stop-color="#fefefe" stop-opacity="1"/>
			<stop offset="1" stop-color="#ffffff" stop-opacity="1"/>
		</linearGradient>
		<linearGradient id="grad0-15" x1="0" y1="0" x2="1" y2="0" gradientTransform="rotate(270 0.5 0.5)">
			<stop offset="0" stop-color="#fefefe" stop-opacity="1"/>
			<stop offset="1" stop-color="#ffffff" stop-opacity="1"/>
		</linearGradient>
	</defs>
	<defs id="Markers">
		<g id="lend5">
			<path d="M 2 1 L 0 0 L 1.98117 -0.993387 C 1.67173 -0.364514 1.67301 0.372642 1.98465 1.00043 " style="stroke:none"/>
		</g>
		<marker id="mrkr5-76" class="st7" refX="-7.63" orient="auto" markerUnits="strokeWidth" overflow="visible">
			<use xlink:href="#lend5" transform="scale(-4.36,-4.36) "/>
		</marker>
		<g id="lend4">
			<path d="M 2 1 L 0 0 L 2 -1 L 2 1 " style="stroke:none"/>
		</g>
		<marker id="mrkr4-109" class="st7" refX="8.24" orient="auto" markerUnits="strokeWidth" overflow="visible">
			<use xlink:href="#lend4" transform="scale(4.36) "/>
		</marker>
		<marker id="mrkr4-111" class="st7" refX="-8.24" orient="auto" markerUnits="strokeWidth" overflow="visible">
			<use xlink:href="#lend4" transform="scale(-4.36,-4.36) "/>
		</marker>
		<marker id="mrkr4-121" class="st7" refX="-8.72" orient="auto" markerUnits="strokeWidth" overflow="visible">
			<use xlink:href="#lend4" transform="scale(-4.36,-4.36) "/>
		</marker>
	</defs>
	<g>
		<title>Samples</title>
		<g id="group169-1" transform="translate(18.375,-298.518)">
			<title>Plain.169</title>
			<g id="group170-2">
				<title>Sheet.170</title>
				<g id="shape171-3" transform="translate(2.88,2.88)">
					<title>Sheet.171</title>
				</g>
				<g id="shape170-5">
					<path d="M0 582.2 L183.77 582.2 L367.53 582.2 L367.53 316.89 L183.77 316.89 L0 316.89 L0 582.2 Z" class="st1"/>
				</g>
			</g>
			<g id="group172-7" transform="translate(0,-242.804)">
				<title>Sheet.172</title>
				<desc>Single Factor Model</desc>
				<g id="shape173-8">
					<title>Sheet.173</title>
				</g>
				<g id="shape172-12">
					<text x="6" y="574.55" class="st2">Single Factor Model</text>				</g>
			</g>
		</g>
		<g id="group174-17" transform="translate(403.906,-298.474)">
			<title>Plain</title>
			<g id="group175-18">
				<title>Sheet.175</title>
				<g id="shape176-19" transform="translate(2.88,2.88)">
					<title>Sheet.176</title>
				</g>
				<g id="shape175-21">
					<path d="M0 582.2 L183.77 582.2 L367.53 582.2 L367.53 316.89 L183.77 316.89 L0 316.89 L0 582.2 Z" class="st1"/>
				</g>
			</g>
			<g id="group177-23" transform="translate(0,-242.804)">
				<title>Sheet.177</title>
				<desc>Correlated Factors Model</desc>
				<g id="shape178-24">
					<title>Sheet.178</title>
				</g>
				<g id="shape177-27">
					<text x="6" y="574.55" class="st2">Correlated Factors Model</text>				</g>
			</g>
		</g>
		<g id="group179-31" transform="translate(18.375,-21.0759)">
			<title>Plain.179</title>
			<g id="group180-32">
				<title>Sheet.180</title>
				<g id="shape181-33" transform="translate(2.88,2.88)">
					<title>Sheet.181</title>
				</g>
				<g id="shape180-35">
					<path d="M0 582.2 L183.77 582.2 L367.53 582.2 L367.53 316.89 L183.77 316.89 L0 316.89 L0 582.2 Z" class="st1"/>
				</g>
			</g>
			<g id="group182-37" transform="translate(0,-242.804)">
				<title>Sheet.182</title>
				<desc>Second Order Factor Model</desc>
				<g id="shape183-38">
					<title>Sheet.183</title>
				</g>
				<g id="shape182-41">
					<text x="6" y="574.55" class="st2">Second Order Factor Model</text>				</g>
			</g>
		</g>
		<g id="group184-45" transform="translate(403.906,-20.88)">
			<title>Plain.184</title>
			<g id="group185-46">
				<title>Sheet.185</title>
				<g id="shape186-47" transform="translate(2.88,2.88)">
					<title>Sheet.186</title>
				</g>
				<g id="shape185-49">
					<path d="M0 582.2 L183.77 582.2 L367.53 582.2 L367.53 316.89 L183.77 316.89 L0 316.89 L0 582.2 Z" class="st1"/>
				</g>
			</g>
			<g id="group187-51" transform="translate(0,-242.804)">
				<title>Sheet.187</title>
				<desc>Bi-factor Model</desc>
				<g id="shape188-52">
					<title>Sheet.188</title>
				</g>
				<g id="shape187-55">
					<text x="6" y="574.55" class="st2">Bi-factor Model</text>				</g>
			</g>
		</g>
		<g id="group106-59" transform="translate(412.906,-29.88)">
			<title>Sheet.106</title>
			<g id="shape1-60" transform="translate(142.563,-195.234)">
				<title>Rectangle.1</title>
				<desc>Biomarker 1</desc>
				<rect x="0" y="552.627" width="67.5" height="29.5697" class="st3"/>
				<text x="9.02" y="564.41" class="st4">Biomarker <tspan x="30.97" dy="1.2em" class="st5">1</tspan></text>			</g>
			<g id="shape2-64" transform="translate(142.563,-146.426)">
				<title>Rectangle.3</title>
				<desc>Biomarker 2</desc>
				<rect x="0" y="552.627" width="67.5" height="29.5697" class="st3"/>
				<text x="9.02" y="564.41" class="st4">Biomarker <tspan x="30.97" dy="1.2em" class="st5">2</tspan></text>			</g>
			<g id="shape3-68" transform="translate(9,-157.424)">
				<title>Ellipse.9</title>
				<desc>System 1</desc>
				<path d="M0 553.85 A39.6563 28.345 0 1 1 79.31 553.85 A39.6563 28.345 0 1 1 0 553.85 Z" class="st3"/>
				<text x="17.7" y="556.85" class="st4">System 1</text>			</g>
			<g id="shape4-71" transform="translate(88.3125,-185.769)">
				<title>Dynamic connector.4</title>
				<path d="M0 582.2 L49.03 560.28" class="st6"/>
			</g>
			<g id="shape5-77" transform="translate(88.3125,-185.769)">
				<title>Dynamic connector.11</title>
				<path d="M0 582.2 L49.04 604.39" class="st6"/>
			</g>
			<g id="shape30-82" transform="translate(142.563,-48.8086)">
				<title>Rectangle.17</title>
				<desc>Biomarker 22</desc>
				<rect x="0" y="552.627" width="67.5" height="29.5697" class="st3"/>
				<text x="9.02" y="564.41" class="st4">Biomarker <tspan x="28.19" dy="1.2em" class="st5">22</tspan></text>			</g>
			<g id="shape31-86" transform="translate(142.563,0)">
				<title>Rectangle.19</title>
				<desc>Biomarker 23</desc>
				<rect x="0" y="552.627" width="67.5" height="29.5697" class="st3"/>
				<text x="9.02" y="564.41" class="st4">Biomarker <tspan x="28.19" dy="1.2em" class="st5">23</tspan></text>			</g>
			<g id="shape34-90" transform="translate(9,-11.1738)">
				<title>Ellipse.25</title>
				<desc>System 7</desc>
				<path d="M0 555.16 A39.6563 27.0384 0 1 1 79.31 555.16 A39.6563 27.0384 0 1 1 0 555.16 Z" class="st3"/>
				<text x="17.7" y="558.16" class="st4">System 7</text>			</g>
			<g id="shape35-93" transform="translate(88.3125,-38.2122)">
				<title>Dynamic connector.35</title>
				<path d="M0 582.2 L49.07 559.24" class="st6"/>
			</g>
			<g id="shape36-98" transform="translate(88.3125,-38.2122)">
				<title>Dynamic connector.36</title>
				<path d="M0 582.2 L49 603.36" class="st6"/>
			</g>
			<g id="shape54-103" transform="translate(0,-185.769)">
				<title>Dynamic connector</title>
				<path d="M3.52 585.06 L3.21 585.23 C-4.5 594.77 -4.5 625.37 -4.5 655.97 C-4.5 686.58 -4.5 717.18 3.21 726.72 L3.52
							 726.89" class="st8"/>
			</g>
			<g id="shape75-112" transform="translate(349.531,1024.95) rotate(180)">
				<title>Ellipse</title>
				<desc>Allostatic Load</desc>
				<path d="M0 555.16 A39.6562 27.0384 0 1 1 79.31 555.16 A39.6562 27.0384 0 1 1 0 555.16 Z" class="st3"/>
				<text x="-62.16" y="-558.16" transform="rotate(180)" class="st4">Allostatic <tspan x="-51.6" dy="1.2em" class="st5">Load</tspan></text>			</g>
			<g id="shape95-116" transform="translate(270.219,-112.402)">
				<title>Dynamic connector.173</title>
				<path d="M0 582.2 L-56.73 674.25" class="st9"/>
			</g>
			<g id="shape96-122" transform="translate(270.219,-112.402)">
				<title>Dynamic connector.174</title>
				<path d="M0 582.2 L-55.08 626.88" class="st9"/>
			</g>
			<g id="shape97-127" transform="translate(270.219,-112.402)">
				<title>Dynamic connector.175</title>
				<path d="M0 582.2 L-55.08 537.51" class="st9"/>
			</g>
			<g id="shape98-132" transform="translate(270.219,-112.402)">
				<title>Dynamic connector.176</title>
				<path d="M0 582.2 L-56.73 490.15" class="st9"/>
			</g>
			<g id="shape103-137" transform="translate(142.563,-97.6172)">
				<title>Rectangle.103</title>
				<desc>. . .</desc>
				<rect x="0" y="552.627" width="67.5" height="29.5697" class="st10"/>
				<text x="24.03" y="571.61" class="st11">. . .</text>			</g>
			<g id="shape104-140" transform="translate(14.9062,-97.6172)">
				<title>Rectangle.104</title>
				<desc>. . .</desc>
				<rect x="0" y="552.627" width="67.5" height="29.5697" class="st10"/>
				<text x="24.03" y="571.61" class="st11">. . .</text>			</g>
		</g>
		<g id="group107-143" transform="translate(27.375,-30.0759)">
			<title>Sheet.107</title>
			<g id="shape108-144" transform="translate(270,-195.234)">
				<title>Rectangle.1</title>
				<desc>Biomarker 1</desc>
				<rect x="0" y="552.627" width="67.5" height="29.5697" class="st3"/>
				<text x="9.02" y="564.41" class="st4">Biomarker <tspan x="30.97" dy="1.2em" class="st5">1</tspan></text>			</g>
			<g id="shape109-148" transform="translate(270,-146.426)">
				<title>Rectangle.3</title>
				<desc>Biomarker 2</desc>
				<rect x="0" y="552.627" width="67.5" height="29.5697" class="st3"/>
				<text x="9.02" y="564.41" class="st4">Biomarker <tspan x="30.97" dy="1.2em" class="st5">2</tspan></text>			</g>
			<g id="shape110-152" transform="translate(136.437,-157.424)">
				<title>Ellipse.9</title>
				<desc>System 1</desc>
				<path d="M0 553.85 A39.6563 28.345 0 1 1 79.31 553.85 A39.6563 28.345 0 1 1 0 553.85 Z" class="st3"/>
				<text x="17.7" y="556.85" class="st4">System 1</text>			</g>
			<g id="shape111-155" transform="translate(215.75,-185.769)">
				<title>Dynamic connector.4</title>
				<path d="M0 582.2 L49.03 560.28" class="st6"/>
			</g>
			<g id="shape112-160" transform="translate(215.75,-185.769)">
				<title>Dynamic connector.11</title>
				<path d="M0 582.2 L49.04 604.39" class="st6"/>
			</g>
			<g id="shape113-165" transform="translate(270,-48.8086)">
				<title>Rectangle.17</title>
				<desc>Biomarker 22</desc>
				<rect x="0" y="552.627" width="67.5" height="29.5697" class="st3"/>
				<text x="9.02" y="564.41" class="st4">Biomarker <tspan x="28.19" dy="1.2em" class="st5">22</tspan></text>			</g>
			<g id="shape114-169" transform="translate(270,0)">
				<title>Rectangle.19</title>
				<desc>Biomarker 23</desc>
				<rect x="0" y="552.627" width="67.5" height="29.5697" class="st3"/>
				<text x="9.02" y="564.41" class="st4">Biomarker <tspan x="28.19" dy="1.2em" class="st5">23</tspan></text>			</g>
			<g id="shape115-173" transform="translate(136.437,-11.1738)">
				<title>Ellipse.25</title>
				<desc>System 7</desc>
				<path d="M0 555.16 A39.6563 27.0384 0 1 1 79.31 555.16 A39.6563 27.0384 0 1 1 0 555.16 Z" class="st3"/>
				<text x="17.7" y="558.16" class="st4">System 7</text>			</g>
			<g id="shape116-176" transform="translate(215.75,-38.2122)">
				<title>Dynamic connector.35</title>
				<path d="M0 582.2 L49.07 559.24" class="st6"/>
			</g>
			<g id="shape117-181" transform="translate(215.75,-38.2122)">
				<title>Dynamic connector.36</title>
				<path d="M0 582.2 L49 603.36" class="st6"/>
			</g>
			<g id="shape124-186" transform="translate(270,-97.6172)">
				<title>Rectangle.103</title>
				<desc>. . .</desc>
				<rect x="0" y="552.627" width="67.5" height="29.5697" class="st10"/>
				<text x="24.03" y="571.61" class="st11">. . .</text>			</g>
			<g id="shape125-189" transform="translate(142.344,-97.6172)">
				<title>Rectangle.104</title>
				<desc>. . .</desc>
				<rect x="0" y="552.627" width="67.5" height="29.5697" class="st10"/>
				<text x="24.03" y="571.61" class="st11">. . .</text>			</g>
		</g>
		<g id="group126-192" transform="translate(27.375,-307.518)">
			<title>Sheet.126</title>
			<g id="shape127-193" transform="translate(142.563,-195.234)">
				<title>Rectangle.1</title>
				<desc>Biomarker 1</desc>
				<rect x="0" y="552.627" width="67.5" height="29.5697" class="st3"/>
				<text x="9.02" y="564.41" class="st4">Biomarker <tspan x="30.97" dy="1.2em" class="st5">1</tspan></text>			</g>
			<g id="shape128-197" transform="translate(142.563,-146.426)">
				<title>Rectangle.3</title>
				<desc>Biomarker 2</desc>
				<rect x="0" y="552.627" width="67.5" height="29.5697" class="st3"/>
				<text x="9.02" y="564.41" class="st4">Biomarker <tspan x="30.97" dy="1.2em" class="st5">2</tspan></text>			</g>
			<g id="shape132-201" transform="translate(142.563,-48.8086)">
				<title>Rectangle.17</title>
				<desc>Biomarker 22</desc>
				<rect x="0" y="552.627" width="67.5" height="29.5697" class="st3"/>
				<text x="9.02" y="564.41" class="st4">Biomarker <tspan x="28.19" dy="1.2em" class="st5">22</tspan></text>			</g>
			<g id="shape133-205" transform="translate(142.563,0)">
				<title>Rectangle.19</title>
				<desc>Biomarker 23</desc>
				<rect x="0" y="552.627" width="67.5" height="29.5697" class="st3"/>
				<text x="9.02" y="564.41" class="st4">Biomarker <tspan x="28.19" dy="1.2em" class="st5">23</tspan></text>			</g>
			<g id="shape138-209" transform="translate(349.531,1024.95) rotate(180)">
				<title>Ellipse</title>
				<desc>Allostatic Load</desc>
				<path d="M0 555.16 A39.6562 27.0384 0 1 1 79.31 555.16 A39.6562 27.0384 0 1 1 0 555.16 Z" class="st3"/>
				<text x="-62.16" y="-558.16" transform="rotate(180)" class="st4">Allostatic <tspan x="-51.6" dy="1.2em" class="st5">Load</tspan></text>			</g>
			<g id="shape139-213" transform="translate(270.219,-112.402)">
				<title>Dynamic connector.173</title>
				<path d="M0 582.2 L-56.73 674.25" class="st9"/>
			</g>
			<g id="shape140-218" transform="translate(270.219,-112.402)">
				<title>Dynamic connector.174</title>
				<path d="M0 582.2 L-55.08 626.88" class="st9"/>
			</g>
			<g id="shape141-223" transform="translate(270.219,-112.402)">
				<title>Dynamic connector.175</title>
				<path d="M0 582.2 L-55.08 537.51" class="st9"/>
			</g>
			<g id="shape142-228" transform="translate(270.219,-112.402)">
				<title>Dynamic connector.176</title>
				<path d="M0 582.2 L-56.73 490.15" class="st9"/>
			</g>
			<g id="shape143-233" transform="translate(142.563,-97.6172)">
				<title>Rectangle.103</title>
				<desc>. . .</desc>
				<rect x="0" y="552.627" width="67.5" height="29.5697" class="st10"/>
				<text x="24.03" y="571.61" class="st11">. . .</text>			</g>
		</g>
		<g id="group145-236" transform="translate(412.906,-307.474)">
			<title>Sheet.145</title>
			<g id="shape146-237" transform="translate(142.563,-195.234)">
				<title>Rectangle.1</title>
				<desc>Biomarker 1</desc>
				<rect x="0" y="552.627" width="67.5" height="29.5697" class="st3"/>
				<text x="9.02" y="564.41" class="st4">Biomarker <tspan x="30.97" dy="1.2em" class="st5">1</tspan></text>			</g>
			<g id="shape147-241" transform="translate(142.563,-146.426)">
				<title>Rectangle.3</title>
				<desc>Biomarker 2</desc>
				<rect x="0" y="552.627" width="67.5" height="29.5697" class="st3"/>
				<text x="9.02" y="564.41" class="st4">Biomarker <tspan x="30.97" dy="1.2em" class="st5">2</tspan></text>			</g>
			<g id="shape148-245" transform="translate(9,-157.424)">
				<title>Ellipse.9</title>
				<desc>System 1</desc>
				<path d="M0 553.85 A39.6563 28.345 0 1 1 79.31 553.85 A39.6563 28.345 0 1 1 0 553.85 Z" class="st3"/>
				<text x="17.7" y="556.85" class="st4">System 1</text>			</g>
			<g id="shape149-248" transform="translate(88.3125,-185.769)">
				<title>Dynamic connector.4</title>
				<path d="M0 582.2 L49.03 560.28" class="st6"/>
			</g>
			<g id="shape150-253" transform="translate(88.3125,-185.769)">
				<title>Dynamic connector.11</title>
				<path d="M0 582.2 L49.04 604.39" class="st6"/>
			</g>
			<g id="shape151-258" transform="translate(142.563,-48.8086)">
				<title>Rectangle.17</title>
				<desc>Biomarker 22</desc>
				<rect x="0" y="552.627" width="67.5" height="29.5697" class="st3"/>
				<text x="9.02" y="564.41" class="st4">Biomarker <tspan x="28.19" dy="1.2em" class="st5">22</tspan></text>			</g>
			<g id="shape152-262" transform="translate(142.563,0)">
				<title>Rectangle.19</title>
				<desc>Biomarker 23</desc>
				<rect x="0" y="552.627" width="67.5" height="29.5697" class="st3"/>
				<text x="9.02" y="564.41" class="st4">Biomarker <tspan x="28.19" dy="1.2em" class="st5">23</tspan></text>			</g>
			<g id="shape153-266" transform="translate(9,-11.1738)">
				<title>Ellipse.25</title>
				<desc>System 7</desc>
				<path d="M0 555.16 A39.6563 27.0384 0 1 1 79.31 555.16 A39.6563 27.0384 0 1 1 0 555.16 Z" class="st3"/>
				<text x="17.7" y="558.16" class="st4">System 7</text>			</g>
			<g id="shape154-269" transform="translate(88.3125,-38.2122)">
				<title>Dynamic connector.35</title>
				<path d="M0 582.2 L49.07 559.24" class="st6"/>
			</g>
			<g id="shape155-274" transform="translate(88.3125,-38.2122)">
				<title>Dynamic connector.36</title>
				<path d="M0 582.2 L49 603.36" class="st6"/>
			</g>
			<g id="shape156-279" transform="translate(0,-185.769)">
				<title>Dynamic connector</title>
				<path d="M3.52 585.06 L3.21 585.23 C-4.5 594.77 -4.5 625.37 -4.5 655.97 C-4.5 686.58 -4.5 717.18 3.21 726.72 L3.52
							 726.89" class="st8"/>
			</g>
			<g id="shape162-286" transform="translate(142.563,-97.6172)">
				<title>Rectangle.103</title>
				<desc>. . .</desc>
				<rect x="0" y="552.627" width="67.5" height="29.5697" class="st10"/>
				<text x="24.03" y="571.61" class="st11">. . .</text>			</g>
			<g id="shape163-289" transform="translate(14.9062,-97.6172)">
				<title>Rectangle.104</title>
				<desc>. . .</desc>
				<rect x="0" y="552.627" width="67.5" height="29.5697" class="st10"/>
				<text x="24.03" y="571.61" class="st11">. . .</text>			</g>
		</g>
		<g id="shape189-292" transform="translate(35.75,-114.133)">
			<title>Ellipse.9</title>
			<desc>Allostatic Load</desc>
			<path d="M0 553.85 A39.6563 28.345 0 1 1 79.31 553.85 A39.6563 28.345 0 1 1 0 553.85 Z" class="st3"/>
			<text x="17.15" y="550.85" class="st4">Allostatic <tspan x="27.71" dy="1.2em" class="st5">Load</tspan></text>		</g>
		<g id="shape190-296" transform="translate(115.063,-142.478)">
			<title>Dynamic connector.35</title>
			<path d="M0 582.2 L45.58 513.6" class="st6"/>
		</g>
		<g id="shape191-301" transform="translate(115.063,-142.478)">
			<title>Dynamic connector.191</title>
			<path d="M0 582.2 L45.61 651.6" class="st6"/>
		</g>
	</g>
</svg>
